<?plantuml 1.2026.2?><svg xmlns="http://www.w3.org/2000/svg" xmlns:xlink="http://www.w3.org/1999/xlink" contentStyleType="text/css" data-diagram-type="ACTIVITY" height="1616px" preserveAspectRatio="none" style="width:450px;height:1616px;background:#FFFFFF;" version="1.1" viewBox="0 0 450 1616" width="450px" zoomAndPan="magnify"><title>Task 2.2, Task 2.4, Task 2.5 Workflow</title><defs/><g><g class="title" data-source-line="1"><text fill="#000000" font-family="sans-serif" font-size="14" font-weight="bold" lengthAdjust="spacing" textLength="272.583" x="87.4829" y="33.5352">Task 2.2, Task 2.4, Task 2.5 Workflow</text></g><ellipse cx="211.0757" cy="57.4883" fill="#222222" rx="10" ry="10" style="stroke:#222222;stroke-width:1;"/><rect fill="none" height="287.418" style="stroke:#000000;stroke-width:1.5;" width="285.5898" x="68.2808" y="77.4883"/><path d="M136.7485,77.4883 L136.7485,86.9766 L126.7485,96.9766 L68.2808,96.9766" fill="none" style="stroke:#000000;stroke-width:1.5;"/><text fill="#000000" font-family="sans-serif" font-size="14" lengthAdjust="spacing" textLength="58.4678" x="71.2808" y="92.0234">Task 2.2</text><rect fill="#F1F1F1" height="76.5313" rx="12.5" ry="12.5" style="stroke:#181818;stroke-width:0.5;" width="181.6426" x="120.2544" y="113.9766"/><text fill="#000000" font-family="sans-serif" font-size="12" lengthAdjust="spacing" textLength="161.6426" x="130.2544" y="135.5781">Client requests /api/assets,</text><text fill="#000000" font-family="sans-serif" font-size="12" lengthAdjust="spacing" textLength="144.1348" x="130.2544" y="149.7109">/api/sentiment/:symbol,</text><text fill="#000000" font-family="sans-serif" font-size="12" lengthAdjust="spacing" textLength="120.9844" x="130.2544" y="163.8438">/api/prices/:symbol,</text><text fill="#000000" font-family="sans-serif" font-size="12" lengthAdjust="spacing" textLength="145.2012" x="130.2544" y="177.9766">/api/correlation/:symbol</text><rect fill="#F1F1F1" height="34.1328" rx="12.5" ry="12.5" style="stroke:#181818;stroke-width:0.5;" width="238.4844" x="91.8335" y="210.5078"/><text fill="#000000" font-family="sans-serif" font-size="12" lengthAdjust="spacing" textLength="218.4844" x="101.8335" y="232.1094">Express routes validate query params</text><rect fill="#F1F1F1" height="34.1328" rx="12.5" ry="12.5" style="stroke:#181818;stroke-width:0.5;" width="209.6797" x="106.2358" y="264.6406"/><text fill="#000000" font-family="sans-serif" font-size="12" lengthAdjust="spacing" textLength="189.6797" x="116.2358" y="286.2422">Read optimized PostgreSQL data</text><rect fill="#F1F1F1" height="34.1328" rx="12.5" ry="12.5" style="stroke:#181818;stroke-width:0.5;" width="265.5898" x="78.2808" y="318.7734"/><text fill="#000000" font-family="sans-serif" font-size="12" lengthAdjust="spacing" textLength="245.5898" x="88.2808" y="340.375">Return JSON payload for dashboard charts</text><rect fill="none" height="327.418" style="stroke:#000000;stroke-width:1.5;" width="243.3613" x="89.395" y="374.9063"/><path d="M157.8628,374.9063 L157.8628,384.3945 L147.8628,394.3945 L89.395,394.3945" fill="none" style="stroke:#000000;stroke-width:1.5;"/><text fill="#000000" font-family="sans-serif" font-size="14" lengthAdjust="spacing" textLength="58.4678" x="92.395" y="389.4414">Task 2.4</text><rect fill="#F1F1F1" height="62.3984" rx="12.5" ry="12.5" style="stroke:#181818;stroke-width:0.5;" width="200.7266" x="110.7124" y="411.3945"/><text fill="#000000" font-family="sans-serif" font-size="12" lengthAdjust="spacing" textLength="180.7266" x="120.7124" y="432.9961">Client requests /api/backtests,</text><text fill="#000000" font-family="sans-serif" font-size="12" lengthAdjust="spacing" textLength="83.4727" x="120.7124" y="447.1289">/api/sessions,</text><text fill="#000000" font-family="sans-serif" font-size="12" lengthAdjust="spacing" textLength="62.5313" x="120.7124" y="461.2617">/api/alerts</text><rect fill="#F1F1F1" height="34.1328" rx="12.5" ry="12.5" style="stroke:#181818;stroke-width:0.5;" width="159.793" x="131.1792" y="493.793"/><text fill="#000000" font-family="sans-serif" font-size="12" lengthAdjust="spacing" textLength="139.793" x="141.1792" y="515.3945">Apply CORS middleware</text><rect fill="#F1F1F1" height="34.1328" rx="12.5" ry="12.5" style="stroke:#181818;stroke-width:0.5;" width="183.8691" x="119.1411" y="547.9258"/><text fill="#000000" font-family="sans-serif" font-size="12" lengthAdjust="spacing" textLength="163.8691" x="129.1411" y="569.5273">Apply rate-limit middleware</text><rect fill="#F1F1F1" height="34.1328" rx="12.5" ry="12.5" style="stroke:#181818;stroke-width:0.5;" width="208.6484" x="106.7515" y="602.0586"/><text fill="#000000" font-family="sans-serif" font-size="12" lengthAdjust="spacing" textLength="188.6484" x="116.7515" y="623.6602">Route queries PostgreSQL tables</text><rect fill="#F1F1F1" height="34.1328" rx="12.5" ry="12.5" style="stroke:#181818;stroke-width:0.5;" width="223.3613" x="99.395" y="656.1914"/><text fill="#000000" font-family="sans-serif" font-size="12" lengthAdjust="spacing" textLength="203.3613" x="109.395" y="677.793">Return operational JSON responses</text><rect fill="none" height="527.9492" style="stroke:#000000;stroke-width:1.5;" width="428.5488" x="11" y="712.3242"/><path d="M79.4678,712.3242 L79.4678,721.8125 L69.4678,731.8125 L11,731.8125" fill="none" style="stroke:#000000;stroke-width:1.5;"/><text fill="#000000" font-family="sans-serif" font-size="14" lengthAdjust="spacing" textLength="58.4678" x="14" y="726.8594">Task 2.5</text><rect fill="#F1F1F1" height="34.1328" rx="12.5" ry="12.5" style="stroke:#181818;stroke-width:0.5;" width="205.6484" x="108.2515" y="748.8125"/><text fill="#000000" font-family="sans-serif" font-size="12" lengthAdjust="spacing" textLength="185.6484" x="118.2515" y="770.4141">Client calls /api/streams/ingest</text><rect fill="#F1F1F1" height="34.1328" rx="12.5" ry="12.5" style="stroke:#181818;stroke-width:0.5;" width="243.0664" x="89.5425" y="802.9453"/><text fill="#000000" font-family="sans-serif" font-size="12" lengthAdjust="spacing" textLength="223.0664" x="99.5425" y="824.5469">StreamsRoute builds request envelope</text><rect fill="#F1F1F1" height="48.2656" rx="12.5" ry="12.5" style="stroke:#181818;stroke-width:0.5;" width="255.7285" x="83.2114" y="857.0781"/><text fill="#000000" font-family="sans-serif" font-size="12" lengthAdjust="spacing" textLength="235.7285" x="93.2114" y="878.6797">StreamIngestionFacade validates source,</text><text fill="#000000" font-family="sans-serif" font-size="12" lengthAdjust="spacing" textLength="119.4727" x="93.2114" y="892.8125">format, content type</text><rect fill="#F1F1F1" height="34.1328" rx="12.5" ry="12.5" style="stroke:#181818;stroke-width:0.5;" width="222.6113" x="99.77" y="925.3438"/><text fill="#000000" font-family="sans-serif" font-size="12" lengthAdjust="spacing" textLength="202.6113" x="109.77" y="946.9453">StreamParserFactory selects parser</text><polygon fill="#F1F1F1" points="189.9485,979.4766,232.2029,979.4766,244.2029,991.4766,232.2029,1003.4766,189.9485,1003.4766,177.9485,991.4766,189.9485,979.4766" style="stroke:#181818;stroke-width:0.5;"/><text fill="#000000" font-family="sans-serif" font-size="11" lengthAdjust="spacing" textLength="42.2544" x="189.9485" y="995.6338">Format?</text><text fill="#000000" font-family="sans-serif" font-size="11" lengthAdjust="spacing" textLength="91.9478" x="86.0007" y="989.1563">json/csv/xml/txt</text><text fill="#000000" font-family="sans-serif" font-size="11" lengthAdjust="spacing" textLength="82.6021" x="244.2029" y="989.1563">xls/xlsx/binary</text><rect fill="#F1F1F1" height="48.2656" rx="12.5" ry="12.5" style="stroke:#181818;stroke-width:0.5;" width="163.877" x="23" y="1013.4766"/><text fill="#000000" font-family="sans-serif" font-size="12" lengthAdjust="spacing" textLength="139.5469" x="33" y="1035.0781">Normalize structured or</text><text fill="#000000" font-family="sans-serif" font-size="12" lengthAdjust="spacing" textLength="143.877" x="33" y="1049.2109">semi-structured payload</text><rect fill="#F1F1F1" height="48.2656" rx="12.5" ry="12.5" style="stroke:#181818;stroke-width:0.5;" width="220.6719" x="206.877" y="1013.4766"/><text fill="#000000" font-family="sans-serif" font-size="12" lengthAdjust="spacing" textLength="200.6719" x="216.877" y="1035.0781">Preserve binary payload as base64</text><text fill="#000000" font-family="sans-serif" font-size="12" lengthAdjust="spacing" textLength="159.2344" x="216.877" y="1049.2109">for downstream processing</text><polygon fill="#F1F1F1" points="211.0757,1067.7422,223.0757,1079.7422,211.0757,1091.7422,199.0757,1079.7422,211.0757,1067.7422" style="stroke:#181818;stroke-width:0.5;"/><rect fill="#F1F1F1" height="48.2656" rx="12.5" ry="12.5" style="stroke:#181818;stroke-width:0.5;" width="228.3359" x="96.9077" y="1111.7422"/><text fill="#000000" font-family="sans-serif" font-size="12" lengthAdjust="spacing" textLength="208.3359" x="106.9077" y="1133.3438">StreamEventRepository stores event</text><text fill="#000000" font-family="sans-serif" font-size="12" lengthAdjust="spacing" textLength="158.3555" x="106.9077" y="1147.4766">in stream_ingestion_events</text><rect fill="#F1F1F1" height="48.2656" rx="12.5" ry="12.5" style="stroke:#181818;stroke-width:0.5;" width="219.8516" x="101.1499" y="1180.0078"/><text fill="#000000" font-family="sans-serif" font-size="12" lengthAdjust="spacing" textLength="199.8516" x="111.1499" y="1201.6094">Client checks /api/streams/health</text><text fill="#000000" font-family="sans-serif" font-size="12" lengthAdjust="spacing" textLength="136.3887" x="111.1499" y="1215.7422">or /api/streams/events</text><rect fill="none" height="313.2852" style="stroke:#000000;stroke-width:1.5;" width="180.291" x="120.9302" y="1250.2734"/><path d="M208.3267,1250.2734 L208.3267,1259.7617 L198.3267,1269.7617 L120.9302,1269.7617" fill="none" style="stroke:#000000;stroke-width:1.5;"/><text fill="#000000" font-family="sans-serif" font-size="14" lengthAdjust="spacing" textLength="77.3965" x="123.9302" y="1264.8086">Verification</text><rect fill="#F1F1F1" height="34.1328" rx="12.5" ry="12.5" style="stroke:#181818;stroke-width:0.5;" width="107.0352" x="157.5581" y="1286.7617"/><text fill="#000000" font-family="sans-serif" font-size="12" lengthAdjust="spacing" textLength="87.0352" x="167.5581" y="1308.3633">Run CLI scripts</text><rect fill="#F1F1F1" height="34.1328" rx="12.5" ry="12.5" style="stroke:#181818;stroke-width:0.5;" width="135.793" x="143.1792" y="1340.8945"/><text fill="#000000" font-family="sans-serif" font-size="12" lengthAdjust="spacing" textLength="115.793" x="153.1792" y="1362.4961">Run Task 2.2 pytest</text><rect fill="#F1F1F1" height="34.1328" rx="12.5" ry="12.5" style="stroke:#181818;stroke-width:0.5;" width="154.7363" x="133.7075" y="1395.0273"/><text fill="#000000" font-family="sans-serif" font-size="12" lengthAdjust="spacing" textLength="134.7363" x="143.7075" y="1416.6289">Run Task 2.5 unit tests</text><rect fill="#F1F1F1" height="34.1328" rx="12.5" ry="12.5" style="stroke:#181818;stroke-width:0.5;" width="135.793" x="143.1792" y="1449.1602"/><text fill="#000000" font-family="sans-serif" font-size="12" lengthAdjust="spacing" textLength="115.793" x="153.1792" y="1470.7617">Run Task 2.5 pytest</text><rect fill="#F1F1F1" height="48.2656" rx="12.5" ry="12.5" style="stroke:#181818;stroke-width:0.5;" width="160.291" x="130.9302" y="1503.293"/><text fill="#000000" font-family="sans-serif" font-size="12" lengthAdjust="spacing" textLength="140.291" x="140.9302" y="1524.8945">Run Task 2.4 pytest last</text><text fill="#000000" font-family="sans-serif" font-size="12" lengthAdjust="spacing" textLength="97.6465" x="140.9302" y="1539.0273">(rate limit check)</text><ellipse cx="211.0757" cy="1594.5586" fill="none" rx="11" ry="11" style="stroke:#222222;stroke-width:1;"/><ellipse cx="211.0757" cy="1594.5586" fill="#222222" rx="6" ry="6" style="stroke:#222222;stroke-width:1;"/><line style="stroke:#181818;stroke-width:1;" x1="211.0757" x2="211.0757" y1="190.5078" y2="210.5078"/><polygon fill="#181818" points="207.0757,200.5078,211.0757,210.5078,215.0757,200.5078,211.0757,204.5078" style="stroke:#181818;stroke-width:1;"/><line style="stroke:#181818;stroke-width:1;" x1="211.0757" x2="211.0757" y1="244.6406" y2="264.6406"/><polygon fill="#181818" points="207.0757,254.6406,211.0757,264.6406,215.0757,254.6406,211.0757,258.6406" style="stroke:#181818;stroke-width:1;"/><line style="stroke:#181818;stroke-width:1;" x1="211.0757" x2="211.0757" y1="298.7734" y2="318.7734"/><polygon fill="#181818" points="207.0757,308.7734,211.0757,318.7734,215.0757,308.7734,211.0757,312.7734" style="stroke:#181818;stroke-width:1;"/><line style="stroke:#181818;stroke-width:1;" x1="211.0757" x2="211.0757" y1="67.4883" y2="113.9766"/><polygon fill="#181818" points="207.0757,103.9766,211.0757,113.9766,215.0757,103.9766,211.0757,107.9766" style="stroke:#181818;stroke-width:1;"/><line style="stroke:#181818;stroke-width:1;" x1="211.0757" x2="211.0757" y1="473.793" y2="493.793"/><polygon fill="#181818" points="207.0757,483.793,211.0757,493.793,215.0757,483.793,211.0757,487.793" style="stroke:#181818;stroke-width:1;"/><line style="stroke:#181818;stroke-width:1;" x1="211.0757" x2="211.0757" y1="527.9258" y2="547.9258"/><polygon fill="#181818" points="207.0757,537.9258,211.0757,547.9258,215.0757,537.9258,211.0757,541.9258" style="stroke:#181818;stroke-width:1;"/><line style="stroke:#181818;stroke-width:1;" x1="211.0757" x2="211.0757" y1="582.0586" y2="602.0586"/><polygon fill="#181818" points="207.0757,592.0586,211.0757,602.0586,215.0757,592.0586,211.0757,596.0586" style="stroke:#181818;stroke-width:1;"/><line style="stroke:#181818;stroke-width:1;" x1="211.0757" x2="211.0757" y1="636.1914" y2="656.1914"/><polygon fill="#181818" points="207.0757,646.1914,211.0757,656.1914,215.0757,646.1914,211.0757,650.1914" style="stroke:#181818;stroke-width:1;"/><line style="stroke:#181818;stroke-width:1;" x1="211.0757" x2="211.0757" y1="352.9063" y2="411.3945"/><polygon fill="#181818" points="207.0757,401.3945,211.0757,411.3945,215.0757,401.3945,211.0757,405.3945" style="stroke:#181818;stroke-width:1;"/><line style="stroke:#181818;stroke-width:1;" x1="211.0757" x2="211.0757" y1="782.9453" y2="802.9453"/><polygon fill="#181818" points="207.0757,792.9453,211.0757,802.9453,215.0757,792.9453,211.0757,796.9453" style="stroke:#181818;stroke-width:1;"/><line style="stroke:#181818;stroke-width:1;" x1="211.0757" x2="211.0757" y1="837.0781" y2="857.0781"/><polygon fill="#181818" points="207.0757,847.0781,211.0757,857.0781,215.0757,847.0781,211.0757,851.0781" style="stroke:#181818;stroke-width:1;"/><line style="stroke:#181818;stroke-width:1;" x1="211.0757" x2="211.0757" y1="905.3438" y2="925.3438"/><polygon fill="#181818" points="207.0757,915.3438,211.0757,925.3438,215.0757,915.3438,211.0757,919.3438" style="stroke:#181818;stroke-width:1;"/><line style="stroke:#181818;stroke-width:1;" x1="177.9485" x2="104.9385" y1="991.4766" y2="991.4766"/><line style="stroke:#181818;stroke-width:1;" x1="104.9385" x2="104.9385" y1="991.4766" y2="1013.4766"/><polygon fill="#181818" points="100.9385,1003.4766,104.9385,1013.4766,108.9385,1003.4766,104.9385,1007.4766" style="stroke:#181818;stroke-width:1;"/><line style="stroke:#181818;stroke-width:1;" x1="244.2029" x2="317.2129" y1="991.4766" y2="991.4766"/><line style="stroke:#181818;stroke-width:1;" x1="317.2129" x2="317.2129" y1="991.4766" y2="1013.4766"/><polygon fill="#181818" points="313.2129,1003.4766,317.2129,1013.4766,321.2129,1003.4766,317.2129,1007.4766" style="stroke:#181818;stroke-width:1;"/><line style="stroke:#181818;stroke-width:1;" x1="104.9385" x2="104.9385" y1="1061.7422" y2="1079.7422"/><line style="stroke:#181818;stroke-width:1;" x1="104.9385" x2="199.0757" y1="1079.7422" y2="1079.7422"/><polygon fill="#181818" points="189.0757,1075.7422,199.0757,1079.7422,189.0757,1083.7422,193.0757,1079.7422" style="stroke:#181818;stroke-width:1;"/><line style="stroke:#181818;stroke-width:1;" x1="317.2129" x2="317.2129" y1="1061.7422" y2="1079.7422"/><line style="stroke:#181818;stroke-width:1;" x1="317.2129" x2="223.0757" y1="1079.7422" y2="1079.7422"/><polygon fill="#181818" points="233.0757,1075.7422,223.0757,1079.7422,233.0757,1083.7422,229.0757,1079.7422" style="stroke:#181818;stroke-width:1;"/><line style="stroke:#181818;stroke-width:1;" x1="211.0757" x2="211.0757" y1="959.4766" y2="979.4766"/><polygon fill="#181818" points="207.0757,969.4766,211.0757,979.4766,215.0757,969.4766,211.0757,973.4766" style="stroke:#181818;stroke-width:1;"/><line style="stroke:#181818;stroke-width:1;" x1="211.0757" x2="211.0757" y1="1091.7422" y2="1111.7422"/><polygon fill="#181818" points="207.0757,1101.7422,211.0757,1111.7422,215.0757,1101.7422,211.0757,1105.7422" style="stroke:#181818;stroke-width:1;"/><line style="stroke:#181818;stroke-width:1;" x1="211.0757" x2="211.0757" y1="1160.0078" y2="1180.0078"/><polygon fill="#181818" points="207.0757,1170.0078,211.0757,1180.0078,215.0757,1170.0078,211.0757,1174.0078" style="stroke:#181818;stroke-width:1;"/><line style="stroke:#181818;stroke-width:1;" x1="211.0757" x2="211.0757" y1="690.3242" y2="748.8125"/><polygon fill="#181818" points="207.0757,738.8125,211.0757,748.8125,215.0757,738.8125,211.0757,742.8125" style="stroke:#181818;stroke-width:1;"/><line style="stroke:#181818;stroke-width:1;" x1="211.0757" x2="211.0757" y1="1320.8945" y2="1340.8945"/><polygon fill="#181818" points="207.0757,1330.8945,211.0757,1340.8945,215.0757,1330.8945,211.0757,1334.8945" style="stroke:#181818;stroke-width:1;"/><line style="stroke:#181818;stroke-width:1;" x1="211.0757" x2="211.0757" y1="1375.0273" y2="1395.0273"/><polygon fill="#181818" points="207.0757,1385.0273,211.0757,1395.0273,215.0757,1385.0273,211.0757,1389.0273" style="stroke:#181818;stroke-width:1;"/><line style="stroke:#181818;stroke-width:1;" x1="211.0757" x2="211.0757" y1="1429.1602" y2="1449.1602"/><polygon fill="#181818" points="207.0757,1439.1602,211.0757,1449.1602,215.0757,1439.1602,211.0757,1443.1602" style="stroke:#181818;stroke-width:1;"/><line style="stroke:#181818;stroke-width:1;" x1="211.0757" x2="211.0757" y1="1483.293" y2="1503.293"/><polygon fill="#181818" points="207.0757,1493.293,211.0757,1503.293,215.0757,1493.293,211.0757,1497.293" style="stroke:#181818;stroke-width:1;"/><line style="stroke:#181818;stroke-width:1;" x1="211.0757" x2="211.0757" y1="1228.2734" y2="1286.7617"/><polygon fill="#181818" points="207.0757,1276.7617,211.0757,1286.7617,215.0757,1276.7617,211.0757,1280.7617" style="stroke:#181818;stroke-width:1;"/><line style="stroke:#181818;stroke-width:1;" x1="211.0757" x2="211.0757" y1="1551.5586" y2="1583.5586"/><polygon fill="#181818" points="207.0757,1573.5586,211.0757,1583.5586,215.0757,1573.5586,211.0757,1577.5586" style="stroke:#181818;stroke-width:1;"/><?plantuml-src VLHDRzim3BtdLn0zfK0w0qMwGtSOXg05EXHjbmph9K11oqoZHPOqKKxY3VllesKxTRfkXmWMlz_ZKwAEXk0hyWREtvrF-g_fuUi27btOh8pRZKOSCSJHoCkfetOMJlh44_Wr0hYS6KqsGg0V5N5aoD3h39afycHfquqbG9ToP9TSbxaplSC7hOXVMvKBWGmstNhNXwRJrTu7OeRWgaWCMpIwm4WWZKCDCY6Md0BdX0KuBptrJohWmN5y3hJuSWiIZrr8h8A5pulxEyciZPECbGiImElSOIX0hGMorFlz5lZf_y3dg3QnkRxWPvRimnqDfT9Iu9FtfeRP_Nm1fIuAGpiCDF040NXc14XyxPytB2JiMiWOO8oO6-8XIkSf93hHj8Y5HY_pqB_WNHp3KsXCXurZ8A4vq_PP4AOcYzRKpfDNsXJS4m9ajsIa_I3m9cLAjsjKMD1XZGpigg18I995b1Wde9oDJVzO7rLumC0K93qwsJkJ8INK-sHjmlGAnjUfnCTJY6koCFxEeYN5ssnVcYpkuwc4IRsx9ig8I41mLKh84hcui1HgIdqsi7KIQQgJOOBntd0cltsMQukXxkez2B4Kja93iXwKXGmvChsV9cnGk9rjYGGVd6hKOPzJRLlerGlGgwsWdvDth5keSWfFr9YNLbjeYppfdjAdv6ftt-zkJMhpQdbhGXFNIokZ7Ddxx6DDV1E5hRHA0kfqCQyip6vlW5NGlklNsFg_1l1rxEKni5z0PKN8wMtyxNixPzhPmI0Bw77p8A1z40dQQHfNcF5_0000?></g></svg>